<svg width="48" height="49" viewBox="0 0 48 49" fill="none" xmlns="http://www.w3.org/2000/svg">
<circle cx="24" cy="24.0078" r="24" fill="#F5F5F5"/>
<path fill-rule="evenodd" clip-rule="evenodd" d="M24.2972 25.0833C27.2887 25.0833 29.7139 22.6582 29.7139 19.6667C29.7139 16.6751 27.2887 14.25 24.2972 14.25C21.3057 14.25 18.8805 16.6751 18.8805 19.6667C18.8805 22.6582 21.3057 25.0833 24.2972 25.0833ZM27.5472 19.6667C27.5472 21.4616 26.0921 22.9167 24.2972 22.9167C22.5023 22.9167 21.0472 21.4616 21.0472 19.6667C21.0472 17.8717 22.5023 16.4167 24.2972 16.4167C26.0921 16.4167 27.5472 17.8717 27.5472 19.6667ZM30.6865 31.5538H17.3138C17.7742 29.704 19.4463 28.3333 21.4386 28.3333H26.5617C28.554 28.3333 30.2261 29.704 30.6865 31.5538ZM21.4386 26.1667C17.8945 26.1667 15.0215 29.0397 15.0215 32.5838C15.0215 33.2115 15.5304 33.7204 16.1582 33.7204H31.8421C32.4699 33.7204 32.9788 33.2115 32.9788 32.5838C32.9788 29.0397 30.1058 26.1667 26.5617 26.1667H21.4386Z" fill="#818285"/>
</svg>
