<svg width="360" height="52" viewBox="0 0 360 52" fill="none" xmlns="http://www.w3.org/2000/svg">
<path d="M36 22L36 31L10 31L10 22L36 22Z" fill="#BBC7FE"/>
<path d="M70 22L70 31L37 31L37 22L70 22Z" fill="#A7B6F7"/>
<path d="M105 22L105 31L71 31L71 22L105 22Z" fill="#A0B0F4"/>
<path d="M144 22L144 31L106 31L106 22L144 22Z" fill="#8EA1EE"/>
<path d="M186 22L186 31L145 31L145 22L186 22Z" fill="#7F95E9"/>
<path d="M234 22L234 31L187 31L187 22L234 22Z" fill="#7088E4"/>
<path d="M285 22L285 31L235 31L235 22L285 22Z" fill="#5E79DE"/>
<path d="M358 22C359.105 22 360 22.8954 360 24L360 29C360 30.1046 359.105 31 358 31L286 31L286 22L358 22Z" fill="#4665D6"/>
<path d="M9 22.0049L9 31.0049L2 31.0049C0.89543 31.0049 -3.54262e-07 30.1095 -3.0598e-07 29.0049L-8.74227e-08 24.0049C-3.91404e-08 22.9003 0.895431 22.0049 2 22.0049L9 22.0049Z" fill="#E8EBF0"/>
<path d="M220.54 47.0049V40.9449H218.416V39.9969H219.796C220.1 39.9969 220.304 39.9609 220.408 39.8889C220.52 39.8169 220.596 39.6329 220.636 39.3369L220.696 38.8449H221.62V47.0049H220.54ZM224.627 49.1649V48.4689C224.859 48.3649 225.019 48.2129 225.107 48.0129C225.195 47.8209 225.243 47.4929 225.251 47.0289V46.9449H224.735V45.6969H225.983V47.1009C225.983 47.6609 225.879 48.1289 225.671 48.5049C225.463 48.8809 225.115 49.1009 224.627 49.1649ZM230.127 47.1249C229.159 47.1249 228.415 46.7649 227.895 46.0449C227.383 45.3249 227.127 44.2849 227.127 42.9249C227.127 41.5569 227.383 40.5169 227.895 39.8049C228.415 39.0849 229.159 38.7249 230.127 38.7249C231.103 38.7249 231.847 39.0849 232.359 39.8049C232.871 40.5249 233.127 41.5649 233.127 42.9249C233.127 44.2929 232.871 45.3369 232.359 46.0569C231.847 46.7689 231.103 47.1249 230.127 47.1249ZM230.127 46.1649C230.711 46.1649 231.171 45.9169 231.507 45.4209C231.843 44.9249 232.011 44.1009 232.011 42.9489C232.011 41.7809 231.843 40.9449 231.507 40.4409C231.171 39.9369 230.711 39.6849 230.127 39.6849C229.543 39.6849 229.083 39.9329 228.747 40.4289C228.411 40.9249 228.243 41.7489 228.243 42.9009C228.243 44.0689 228.411 44.9049 228.747 45.4089C229.083 45.9129 229.543 46.1649 230.127 46.1649ZM237.323 47.1249C236.355 47.1249 235.611 46.7649 235.091 46.0449C234.579 45.3249 234.323 44.2849 234.323 42.9249C234.323 41.5569 234.579 40.5169 235.091 39.8049C235.611 39.0849 236.355 38.7249 237.323 38.7249C238.299 38.7249 239.043 39.0849 239.555 39.8049C240.067 40.5249 240.323 41.5649 240.323 42.9249C240.323 44.2929 240.067 45.3369 239.555 46.0569C239.043 46.7689 238.299 47.1249 237.323 47.1249ZM237.323 46.1649C237.907 46.1649 238.367 45.9169 238.703 45.4209C239.039 44.9249 239.207 44.1009 239.207 42.9489C239.207 41.7809 239.039 40.9449 238.703 40.4409C238.367 39.9369 237.907 39.6849 237.323 39.6849C236.739 39.6849 236.279 39.9329 235.943 40.4289C235.607 40.9249 235.439 41.7489 235.439 42.9009C235.439 44.0689 235.607 44.9049 235.943 45.4089C236.279 45.9129 236.739 46.1649 237.323 46.1649ZM244.518 47.1249C243.55 47.1249 242.806 46.7649 242.286 46.0449C241.774 45.3249 241.518 44.2849 241.518 42.9249C241.518 41.5569 241.774 40.5169 242.286 39.8049C242.806 39.0849 243.55 38.7249 244.518 38.7249C245.494 38.7249 246.238 39.0849 246.75 39.8049C247.262 40.5249 247.518 41.5649 247.518 42.9249C247.518 44.2929 247.262 45.3369 246.75 46.0569C246.238 46.7689 245.494 47.1249 244.518 47.1249ZM244.518 46.1649C245.102 46.1649 245.562 45.9169 245.898 45.4209C246.234 44.9249 246.402 44.1009 246.402 42.9489C246.402 41.7809 246.234 40.9449 245.898 40.4409C245.562 39.9369 245.102 39.6849 244.518 39.6849C243.934 39.6849 243.474 39.9329 243.138 40.4289C242.802 40.9249 242.634 41.7489 242.634 42.9009C242.634 44.0689 242.802 44.9049 243.138 45.4089C243.474 45.9129 243.934 46.1649 244.518 46.1649Z" fill="#171D21"/>
<path d="M269.6 44.8209H270.656C270.744 45.3089 270.952 45.6569 271.28 45.8649C271.608 46.0649 272.008 46.1649 272.48 46.1649C273.072 46.1649 273.532 46.0409 273.86 45.7929C274.188 45.5449 274.352 45.1929 274.352 44.7369C274.352 44.2569 274.188 43.8929 273.86 43.6449C273.532 43.3969 273.08 43.2729 272.504 43.2729H271.364V42.3489H272.492C273.012 42.3489 273.412 42.2249 273.692 41.9769C273.98 41.7289 274.124 41.3969 274.124 40.9809C274.124 40.5889 273.98 40.2729 273.692 40.0329C273.412 39.7929 273.024 39.6729 272.528 39.6729C271.536 39.6729 270.972 40.1289 270.836 41.0409H269.804C269.82 40.6649 269.924 40.3009 270.116 39.9489C270.316 39.5969 270.616 39.3049 271.016 39.0729C271.416 38.8409 271.928 38.7249 272.552 38.7249C273.136 38.7249 273.624 38.8249 274.016 39.0249C274.416 39.2169 274.716 39.4809 274.916 39.8169C275.124 40.1449 275.228 40.5129 275.228 40.9209C275.228 41.3689 275.108 41.7489 274.868 42.0609C274.636 42.3729 274.34 42.6129 273.98 42.7809C274.436 42.9089 274.796 43.1529 275.06 43.5129C275.324 43.8729 275.456 44.2889 275.456 44.7609C275.456 45.4649 275.192 46.0369 274.664 46.4769C274.144 46.9089 273.42 47.1249 272.492 47.1249C271.9 47.1249 271.392 47.0249 270.968 46.8249C270.544 46.6169 270.216 46.3409 269.984 45.9969C269.752 45.6449 269.624 45.2529 269.6 44.8209ZM276.627 49.1649V48.4689C276.859 48.3649 277.019 48.2129 277.107 48.0129C277.195 47.8209 277.243 47.4929 277.251 47.0289V46.9449H276.735V45.6969H277.983V47.1009C277.983 47.6609 277.879 48.1289 277.671 48.5049C277.463 48.8809 277.115 49.1009 276.627 49.1649ZM282.127 47.1249C281.159 47.1249 280.415 46.7649 279.895 46.0449C279.383 45.3249 279.127 44.2849 279.127 42.9249C279.127 41.5569 279.383 40.5169 279.895 39.8049C280.415 39.0849 281.159 38.7249 282.127 38.7249C283.103 38.7249 283.847 39.0849 284.359 39.8049C284.871 40.5249 285.127 41.5649 285.127 42.9249C285.127 44.2929 284.871 45.3369 284.359 46.0569C283.847 46.7689 283.103 47.1249 282.127 47.1249ZM282.127 46.1649C282.711 46.1649 283.171 45.9169 283.507 45.4209C283.843 44.9249 284.011 44.1009 284.011 42.9489C284.011 41.7809 283.843 40.9449 283.507 40.4409C283.171 39.9369 282.711 39.6849 282.127 39.6849C281.543 39.6849 281.083 39.9329 280.747 40.4289C280.411 40.9249 280.243 41.7489 280.243 42.9009C280.243 44.0689 280.411 44.9049 280.747 45.4089C281.083 45.9129 281.543 46.1649 282.127 46.1649ZM289.323 47.1249C288.355 47.1249 287.611 46.7649 287.091 46.0449C286.579 45.3249 286.323 44.2849 286.323 42.9249C286.323 41.5569 286.579 40.5169 287.091 39.8049C287.611 39.0849 288.355 38.7249 289.323 38.7249C290.299 38.7249 291.043 39.0849 291.555 39.8049C292.067 40.5249 292.323 41.5649 292.323 42.9249C292.323 44.2929 292.067 45.3369 291.555 46.0569C291.043 46.7689 290.299 47.1249 289.323 47.1249ZM289.323 46.1649C289.907 46.1649 290.367 45.9169 290.703 45.4209C291.039 44.9249 291.207 44.1009 291.207 42.9489C291.207 41.7809 291.039 40.9449 290.703 40.4409C290.367 39.9369 289.907 39.6849 289.323 39.6849C288.739 39.6849 288.279 39.9329 287.943 40.4289C287.607 40.9249 287.439 41.7489 287.439 42.9009C287.439 44.0689 287.607 44.9049 287.943 45.4089C288.279 45.9129 288.739 46.1649 289.323 46.1649ZM296.518 47.1249C295.55 47.1249 294.806 46.7649 294.286 46.0449C293.774 45.3249 293.518 44.2849 293.518 42.9249C293.518 41.5569 293.774 40.5169 294.286 39.8049C294.806 39.0849 295.55 38.7249 296.518 38.7249C297.494 38.7249 298.238 39.0849 298.75 39.8049C299.262 40.5249 299.518 41.5649 299.518 42.9249C299.518 44.2929 299.262 45.3369 298.75 46.0569C298.238 46.7689 297.494 47.1249 296.518 47.1249ZM296.518 46.1649C297.102 46.1649 297.562 45.9169 297.898 45.4209C298.234 44.9249 298.402 44.1009 298.402 42.9489C298.402 41.7809 298.234 40.9449 297.898 40.4409C297.562 39.9369 297.102 39.6849 296.518 39.6849C295.934 39.6849 295.474 39.9329 295.138 40.4289C294.802 40.9249 294.634 41.7489 294.634 42.9009C294.634 44.0689 294.802 44.9049 295.138 45.4089C295.474 45.9129 295.934 46.1649 296.518 46.1649Z" fill="#171D21"/>
<path d="M321.6 44.8209H322.656C322.744 45.3089 322.952 45.6569 323.28 45.8649C323.608 46.0649 324.008 46.1649 324.48 46.1649C325.072 46.1649 325.532 46.0409 325.86 45.7929C326.188 45.5449 326.352 45.1929 326.352 44.7369C326.352 44.2569 326.188 43.8929 325.86 43.6449C325.532 43.3969 325.08 43.2729 324.504 43.2729H323.364V42.3489H324.492C325.012 42.3489 325.412 42.2249 325.692 41.9769C325.98 41.7289 326.124 41.3969 326.124 40.9809C326.124 40.5889 325.98 40.2729 325.692 40.0329C325.412 39.7929 325.024 39.6729 324.528 39.6729C323.536 39.6729 322.972 40.1289 322.836 41.0409H321.804C321.82 40.6649 321.924 40.3009 322.116 39.9489C322.316 39.5969 322.616 39.3049 323.016 39.0729C323.416 38.8409 323.928 38.7249 324.552 38.7249C325.136 38.7249 325.624 38.8249 326.016 39.0249C326.416 39.2169 326.716 39.4809 326.916 39.8169C327.124 40.1449 327.228 40.5129 327.228 40.9209C327.228 41.3689 327.108 41.7489 326.868 42.0609C326.636 42.3729 326.34 42.6129 325.98 42.7809C326.436 42.9089 326.796 43.1529 327.06 43.5129C327.324 43.8729 327.456 44.2889 327.456 44.7609C327.456 45.4649 327.192 46.0369 326.664 46.4769C326.144 46.9089 325.42 47.1249 324.492 47.1249C323.9 47.1249 323.392 47.0249 322.968 46.8249C322.544 46.6169 322.216 46.3409 321.984 45.9969C321.752 45.6449 321.624 45.2529 321.6 44.8209ZM328.627 49.1649V48.4689C328.859 48.3649 329.019 48.2129 329.107 48.0129C329.195 47.8209 329.243 47.4929 329.251 47.0289V46.9449H328.735V45.6969H329.983V47.1009C329.983 47.6609 329.879 48.1289 329.671 48.5049C329.463 48.8809 329.115 49.1009 328.627 49.1649ZM334.127 47.1249C333.159 47.1249 332.415 46.7649 331.895 46.0449C331.383 45.3249 331.127 44.2849 331.127 42.9249C331.127 41.5569 331.383 40.5169 331.895 39.8049C332.415 39.0849 333.159 38.7249 334.127 38.7249C335.103 38.7249 335.847 39.0849 336.359 39.8049C336.871 40.5249 337.127 41.5649 337.127 42.9249C337.127 44.2929 336.871 45.3369 336.359 46.0569C335.847 46.7689 335.103 47.1249 334.127 47.1249ZM334.127 46.1649C334.711 46.1649 335.171 45.9169 335.507 45.4209C335.843 44.9249 336.011 44.1009 336.011 42.9489C336.011 41.7809 335.843 40.9449 335.507 40.4409C335.171 39.9369 334.711 39.6849 334.127 39.6849C333.543 39.6849 333.083 39.9329 332.747 40.4289C332.411 40.9249 332.243 41.7489 332.243 42.9009C332.243 44.0689 332.411 44.9049 332.747 45.4089C333.083 45.9129 333.543 46.1649 334.127 46.1649ZM341.323 47.1249C340.355 47.1249 339.611 46.7649 339.091 46.0449C338.579 45.3249 338.323 44.2849 338.323 42.9249C338.323 41.5569 338.579 40.5169 339.091 39.8049C339.611 39.0849 340.355 38.7249 341.323 38.7249C342.299 38.7249 343.043 39.0849 343.555 39.8049C344.067 40.5249 344.323 41.5649 344.323 42.9249C344.323 44.2929 344.067 45.3369 343.555 46.0569C343.043 46.7689 342.299 47.1249 341.323 47.1249ZM341.323 46.1649C341.907 46.1649 342.367 45.9169 342.703 45.4209C343.039 44.9249 343.207 44.1009 343.207 42.9489C343.207 41.7809 343.039 40.9449 342.703 40.4409C342.367 39.9369 341.907 39.6849 341.323 39.6849C340.739 39.6849 340.279 39.9329 339.943 40.4289C339.607 40.9249 339.439 41.7489 339.439 42.9009C339.439 44.0689 339.607 44.9049 339.943 45.4089C340.279 45.9129 340.739 46.1649 341.323 46.1649ZM348.518 47.1249C347.55 47.1249 346.806 46.7649 346.286 46.0449C345.774 45.3249 345.518 44.2849 345.518 42.9249C345.518 41.5569 345.774 40.5169 346.286 39.8049C346.806 39.0849 347.55 38.7249 348.518 38.7249C349.494 38.7249 350.238 39.0849 350.75 39.8049C351.262 40.5249 351.518 41.5649 351.518 42.9249C351.518 44.2929 351.262 45.3369 350.75 46.0569C350.238 46.7689 349.494 47.1249 348.518 47.1249ZM348.518 46.1649C349.102 46.1649 349.562 45.9169 349.898 45.4209C350.234 44.9249 350.402 44.1009 350.402 42.9489C350.402 41.7809 350.234 40.9449 349.898 40.4409C349.562 39.9369 349.102 39.6849 348.518 39.6849C347.934 39.6849 347.474 39.9329 347.138 40.4289C346.802 40.9249 346.634 41.7489 346.634 42.9009C346.634 44.0689 346.802 44.9049 347.138 45.4089C347.474 45.9129 347.934 46.1649 348.518 46.1649ZM355.221 45.8889V43.7649H353.097V42.8529H355.221V40.7169H356.205V42.8529H358.329V43.7649H356.205V45.8889H355.221Z" fill="#171D21"/>
<path d="M175.792 44.8684H176.848C176.936 45.3404 177.136 45.6764 177.448 45.8764C177.76 46.0684 178.136 46.1644 178.576 46.1644C179.136 46.1644 179.568 45.9964 179.872 45.6604C180.184 45.3164 180.34 44.8884 180.34 44.3764C180.34 43.8564 180.2 43.4284 179.92 43.0924C179.648 42.7484 179.228 42.5764 178.66 42.5764C178.268 42.5764 177.936 42.6644 177.664 42.8404C177.392 43.0164 177.192 43.2124 177.064 43.4284H176.116V38.8444H180.916V39.7924H177.124V42.3484C177.532 41.8924 178.104 41.6644 178.84 41.6644C179.352 41.6644 179.804 41.7724 180.196 41.9884C180.588 42.2044 180.892 42.5124 181.108 42.9124C181.332 43.3124 181.444 43.7884 181.444 44.3404C181.444 44.8524 181.332 45.3204 181.108 45.7444C180.884 46.1684 180.56 46.5044 180.136 46.7524C179.72 47.0004 179.212 47.1244 178.612 47.1244C177.98 47.1244 177.46 47.0164 177.052 46.8004C176.644 46.5764 176.336 46.2924 176.128 45.9484C175.928 45.5964 175.816 45.2364 175.792 44.8684ZM185.795 47.1244C184.827 47.1244 184.083 46.7644 183.563 46.0444C183.051 45.3244 182.795 44.2844 182.795 42.9244C182.795 41.5564 183.051 40.5164 183.563 39.8044C184.083 39.0844 184.827 38.7244 185.795 38.7244C186.771 38.7244 187.515 39.0844 188.027 39.8044C188.539 40.5244 188.795 41.5644 188.795 42.9244C188.795 44.2924 188.539 45.3364 188.027 46.0564C187.515 46.7684 186.771 47.1244 185.795 47.1244ZM185.795 46.1644C186.379 46.1644 186.839 45.9164 187.175 45.4204C187.511 44.9244 187.679 44.1004 187.679 42.9484C187.679 41.7804 187.511 40.9444 187.175 40.4404C186.839 39.9364 186.379 39.6844 185.795 39.6844C185.211 39.6844 184.751 39.9324 184.415 40.4284C184.079 40.9244 183.911 41.7484 183.911 42.9004C183.911 44.0684 184.079 44.9044 184.415 45.4084C184.751 45.9124 185.211 46.1644 185.795 46.1644ZM192.991 47.1244C192.023 47.1244 191.279 46.7644 190.759 46.0444C190.247 45.3244 189.991 44.2844 189.991 42.9244C189.991 41.5564 190.247 40.5164 190.759 39.8044C191.279 39.0844 192.023 38.7244 192.991 38.7244C193.967 38.7244 194.711 39.0844 195.223 39.8044C195.735 40.5244 195.991 41.5644 195.991 42.9244C195.991 44.2924 195.735 45.3364 195.223 46.0564C194.711 46.7684 193.967 47.1244 192.991 47.1244ZM192.991 46.1644C193.575 46.1644 194.035 45.9164 194.371 45.4204C194.707 44.9244 194.875 44.1004 194.875 42.9484C194.875 41.7804 194.707 40.9444 194.371 40.4404C194.035 39.9364 193.575 39.6844 192.991 39.6844C192.407 39.6844 191.947 39.9324 191.611 40.4284C191.275 40.9244 191.107 41.7484 191.107 42.9004C191.107 44.0684 191.275 44.9044 191.611 45.4084C191.947 45.9124 192.407 46.1644 192.991 46.1644Z" fill="#171D21"/>
<path d="M136.54 47.0044V40.9444H134.416V39.9964H135.796C136.1 39.9964 136.304 39.9604 136.408 39.8884C136.52 39.8164 136.596 39.6324 136.636 39.3364L136.696 38.8444H137.62V47.0044H136.54ZM143.795 47.1244C142.827 47.1244 142.083 46.7644 141.563 46.0444C141.051 45.3244 140.795 44.2844 140.795 42.9244C140.795 41.5564 141.051 40.5164 141.563 39.8044C142.083 39.0844 142.827 38.7244 143.795 38.7244C144.771 38.7244 145.515 39.0844 146.027 39.8044C146.539 40.5244 146.795 41.5644 146.795 42.9244C146.795 44.2924 146.539 45.3364 146.027 46.0564C145.515 46.7684 144.771 47.1244 143.795 47.1244ZM143.795 46.1644C144.379 46.1644 144.839 45.9164 145.175 45.4204C145.511 44.9244 145.679 44.1004 145.679 42.9484C145.679 41.7804 145.511 40.9444 145.175 40.4404C144.839 39.9364 144.379 39.6844 143.795 39.6844C143.211 39.6844 142.751 39.9324 142.415 40.4284C142.079 40.9244 141.911 41.7484 141.911 42.9004C141.911 44.0684 142.079 44.9044 142.415 45.4084C142.751 45.9124 143.211 46.1644 143.795 46.1644ZM150.991 47.1244C150.023 47.1244 149.279 46.7644 148.759 46.0444C148.247 45.3244 147.991 44.2844 147.991 42.9244C147.991 41.5564 148.247 40.5164 148.759 39.8044C149.279 39.0844 150.023 38.7244 150.991 38.7244C151.967 38.7244 152.711 39.0844 153.223 39.8044C153.735 40.5244 153.991 41.5644 153.991 42.9244C153.991 44.2924 153.735 45.3364 153.223 46.0564C152.711 46.7684 151.967 47.1244 150.991 47.1244ZM150.991 46.1644C151.575 46.1644 152.035 45.9164 152.371 45.4204C152.707 44.9244 152.875 44.1004 152.875 42.9484C152.875 41.7804 152.707 40.9444 152.371 40.4404C152.035 39.9364 151.575 39.6844 150.991 39.6844C150.407 39.6844 149.947 39.9324 149.611 40.4284C149.275 40.9244 149.107 41.7484 149.107 42.9004C149.107 44.0684 149.275 44.9044 149.611 45.4084C149.947 45.9124 150.407 46.1644 150.991 46.1644Z" fill="#171D21"/>
<path d="M98.792 44.8684H99.848C99.936 45.3404 100.136 45.6764 100.448 45.8764C100.76 46.0684 101.136 46.1644 101.576 46.1644C102.136 46.1644 102.568 45.9964 102.872 45.6604C103.184 45.3164 103.34 44.8884 103.34 44.3764C103.34 43.8564 103.2 43.4284 102.92 43.0924C102.648 42.7484 102.228 42.5764 101.66 42.5764C101.268 42.5764 100.936 42.6644 100.664 42.8404C100.392 43.0164 100.192 43.2124 100.064 43.4284H99.116V38.8444H103.916V39.7924H100.124V42.3484C100.532 41.8924 101.104 41.6644 101.84 41.6644C102.352 41.6644 102.804 41.7724 103.196 41.9884C103.588 42.2044 103.892 42.5124 104.108 42.9124C104.332 43.3124 104.444 43.7884 104.444 44.3404C104.444 44.8524 104.332 45.3204 104.108 45.7444C103.884 46.1684 103.56 46.5044 103.136 46.7524C102.72 47.0004 102.212 47.1244 101.612 47.1244C100.98 47.1244 100.46 47.0164 100.052 46.8004C99.644 46.5764 99.336 46.2924 99.128 45.9484C98.928 45.5964 98.816 45.2364 98.792 44.8684ZM108.795 47.1244C107.827 47.1244 107.083 46.7644 106.563 46.0444C106.051 45.3244 105.795 44.2844 105.795 42.9244C105.795 41.5564 106.051 40.5164 106.563 39.8044C107.083 39.0844 107.827 38.7244 108.795 38.7244C109.771 38.7244 110.515 39.0844 111.027 39.8044C111.539 40.5244 111.795 41.5644 111.795 42.9244C111.795 44.2924 111.539 45.3364 111.027 46.0564C110.515 46.7684 109.771 47.1244 108.795 47.1244ZM108.795 46.1644C109.379 46.1644 109.839 45.9164 110.175 45.4204C110.511 44.9244 110.679 44.1004 110.679 42.9484C110.679 41.7804 110.511 40.9444 110.175 40.4404C109.839 39.9364 109.379 39.6844 108.795 39.6844C108.211 39.6844 107.751 39.9324 107.415 40.4284C107.079 40.9244 106.911 41.7484 106.911 42.9004C106.911 44.0684 107.079 44.9044 107.415 45.4084C107.751 45.9124 108.211 46.1644 108.795 46.1644Z" fill="#171D21"/>
<path d="M63.852 47.0044V46.4524C63.852 45.9404 63.928 45.5004 64.08 45.1324C64.232 44.7564 64.436 44.4364 64.692 44.1724C64.948 43.9004 65.232 43.6644 65.544 43.4644C65.864 43.2564 66.188 43.0684 66.516 42.9004C66.844 42.7244 67.128 42.5564 67.368 42.3964C67.616 42.2364 67.804 42.0524 67.932 41.8444C68.068 41.6364 68.136 41.3724 68.136 41.0524C68.136 40.6524 68.004 40.3244 67.74 40.0684C67.484 39.8124 67.108 39.6844 66.612 39.6844C66.156 39.6844 65.784 39.8044 65.496 40.0444C65.216 40.2764 65.044 40.6044 64.98 41.0284H63.936C63.96 40.6524 64.072 40.2884 64.272 39.9364C64.472 39.5844 64.768 39.2964 65.16 39.0724C65.56 38.8404 66.06 38.7244 66.66 38.7244C67.212 38.7244 67.68 38.8244 68.064 39.0244C68.448 39.2244 68.74 39.4964 68.94 39.8404C69.14 40.1844 69.24 40.5804 69.24 41.0284C69.24 41.4844 69.136 41.8804 68.928 42.2164C68.728 42.5444 68.46 42.8324 68.124 43.0804C67.788 43.3284 67.412 43.5604 66.996 43.7764C66.66 43.9524 66.344 44.1364 66.048 44.3284C65.76 44.5204 65.516 44.7524 65.316 45.0244C65.124 45.2964 65.004 45.6404 64.956 46.0564H69.288V47.0044H63.852ZM73.7953 47.1244C72.8273 47.1244 72.0833 46.7644 71.5633 46.0444C71.0513 45.3244 70.7953 44.2844 70.7953 42.9244C70.7953 41.5564 71.0513 40.5164 71.5633 39.8044C72.0833 39.0844 72.8273 38.7244 73.7953 38.7244C74.7713 38.7244 75.5153 39.0844 76.0273 39.8044C76.5393 40.5244 76.7953 41.5644 76.7953 42.9244C76.7953 44.2924 76.5393 45.3364 76.0273 46.0564C75.5153 46.7684 74.7713 47.1244 73.7953 47.1244ZM73.7953 46.1644C74.3793 46.1644 74.8393 45.9164 75.1753 45.4204C75.5113 44.9244 75.6793 44.1004 75.6793 42.9484C75.6793 41.7804 75.5113 40.9444 75.1753 40.4404C74.8393 39.9364 74.3793 39.6844 73.7953 39.6844C73.2113 39.6844 72.7513 39.9324 72.4153 40.4284C72.0793 40.9244 71.9113 41.7484 71.9113 42.9004C71.9113 44.0684 72.0793 44.9044 72.4153 45.4084C72.7513 45.9124 73.2113 46.1644 73.7953 46.1644Z" fill="#171D21"/>
<path d="M32.54 47.0044V40.9444H30.416V39.9964H31.796C32.1 39.9964 32.304 39.9604 32.408 39.8884C32.52 39.8164 32.596 39.6324 32.636 39.3364L32.696 38.8444H33.62V47.0044H32.54ZM39.7953 47.1244C38.8273 47.1244 38.0833 46.7644 37.5633 46.0444C37.0513 45.3244 36.7953 44.2844 36.7953 42.9244C36.7953 41.5564 37.0513 40.5164 37.5633 39.8044C38.0833 39.0844 38.8273 38.7244 39.7953 38.7244C40.7713 38.7244 41.5153 39.0844 42.0273 39.8044C42.5393 40.5244 42.7953 41.5644 42.7953 42.9244C42.7953 44.2924 42.5393 45.3364 42.0273 46.0564C41.5153 46.7684 40.7713 47.1244 39.7953 47.1244ZM39.7953 46.1644C40.3793 46.1644 40.8393 45.9164 41.1753 45.4204C41.5113 44.9244 41.6793 44.1004 41.6793 42.9484C41.6793 41.7804 41.5113 40.9444 41.1753 40.4404C40.8393 39.9364 40.3793 39.6844 39.7953 39.6844C39.2113 39.6844 38.7513 39.9324 38.4153 40.4284C38.0793 40.9244 37.9113 41.7484 37.9113 42.9004C37.9113 44.0684 38.0793 44.9044 38.4153 45.4084C38.7513 45.9124 39.2113 46.1644 39.7953 46.1644Z" fill="#171D21"/>
<path d="M4.6 47.1249C3.632 47.1249 2.888 46.7649 2.368 46.0449C1.856 45.3249 1.6 44.2849 1.6 42.9249C1.6 41.5569 1.856 40.5169 2.368 39.8049C2.888 39.0849 3.632 38.7249 4.6 38.7249C5.576 38.7249 6.32 39.0849 6.832 39.8049C7.344 40.5249 7.6 41.5649 7.6 42.9249C7.6 44.2929 7.344 45.3369 6.832 46.0569C6.32 46.7689 5.576 47.1249 4.6 47.1249ZM4.6 46.1649C5.184 46.1649 5.644 45.9169 5.98 45.4209C6.316 44.9249 6.484 44.1009 6.484 42.9489C6.484 41.7809 6.316 40.9449 5.98 40.4409C5.644 39.9369 5.184 39.6849 4.6 39.6849C4.016 39.6849 3.556 39.9329 3.22 40.4289C2.884 40.9249 2.716 41.7489 2.716 42.9009C2.716 44.0689 2.884 44.9049 3.22 45.4089C3.556 45.9129 4.016 46.1649 4.6 46.1649Z" fill="#171D21"/>
<path d="M0.990318 12.0478L0.985958 3.76782L2.14996 3.76721L6.32948 10.461L6.32596 3.76501L7.40596 3.76444L7.41032 12.0444L6.24632 12.0451L2.06679 5.35125L2.07032 12.0473L0.990318 12.0478ZM9.21183 9.93149L9.20976 5.99549L10.2898 5.99492L10.2917 9.77492C10.2922 10.7269 10.7285 11.2027 11.6005 11.2022C11.8805 11.2021 12.1405 11.1459 12.3804 11.0338C12.6204 10.9217 12.8163 10.7616 12.9682 10.5535C13.12 10.3374 13.1959 10.0734 13.1957 9.76139L13.1938 5.99339L14.2738 5.99283L14.2769 12.0408L13.3529 12.0413L13.2685 11.2494C13.0847 11.5215 12.8248 11.7416 12.4889 11.9098C12.161 12.0779 11.769 12.1621 11.313 12.1624C10.657 12.1627 10.1409 11.975 9.76471 11.5992C9.39651 11.2154 9.21221 10.6595 9.21183 9.93149ZM16.0347 12.0399L16.0315 5.9919L16.9555 5.99141L17.0399 6.77137C17.2157 6.50728 17.4596 6.29115 17.7715 6.12298C18.0835 5.95482 18.4594 5.87062 18.8994 5.87039C19.7234 5.86996 20.2836 6.22566 20.58 6.93751C20.7558 6.63341 21.0197 6.38127 21.3716 6.18109C21.7315 5.9729 22.1434 5.86868 22.6074 5.86844C23.2474 5.8681 23.7475 6.05984 24.1077 6.44365C24.4759 6.81945 24.6602 7.36736 24.6606 8.08736L24.6627 12.0354L23.5827 12.0359L23.5807 8.24393C23.5802 7.29993 23.1559 6.82815 22.3079 6.8286C22.0759 6.82872 21.8479 6.88484 21.624 6.99696C21.4081 7.10107 21.2321 7.26116 21.0963 7.47723C20.9604 7.69331 20.8925 7.95734 20.8927 8.26934L20.8947 12.0373L19.8147 12.0379L19.8127 8.24591C19.8122 7.30191 19.3999 6.83013 18.5759 6.83056C18.3359 6.83069 18.1039 6.88681 17.88 6.99893C17.6561 7.10305 17.4721 7.26314 17.3283 7.47922C17.1844 7.69529 17.1125 7.95933 17.1127 8.27133L17.1147 12.0393L16.0347 12.0399ZM26.3589 12.0345L26.3544 3.45446L27.4344 3.4539L27.4361 6.7299C27.6439 6.44179 27.9158 6.22564 28.2517 6.08147C28.5877 5.93729 28.9636 5.86509 29.3796 5.86487C29.9396 5.86458 30.4157 6.00033 30.8078 6.27212C31.2 6.54391 31.4962 6.91576 31.6964 7.38765C31.9047 7.85154 32.009 8.37949 32.0093 8.97149C32.0096 9.57949 31.9059 10.1235 31.6981 10.6037C31.4904 11.0838 31.1826 11.4639 30.7747 11.7441C30.3749 12.0163 29.8789 12.1526 29.2869 12.1529C28.8949 12.1531 28.5309 12.0773 28.1948 11.9255C27.8587 11.7737 27.5826 11.5498 27.3665 11.2539L27.2829 12.034L26.3589 12.0345ZM27.4369 8.2899L27.4377 9.7539C27.4378 10.0739 27.518 10.3419 27.6781 10.5578C27.8382 10.7657 28.0423 10.9256 28.2904 11.0374C28.5464 11.1413 28.8184 11.1932 29.1064 11.193C29.6984 11.1927 30.1463 10.9925 30.4501 10.5923C30.7539 10.1921 30.9056 9.66007 30.9053 8.99607C30.9049 8.34807 30.7527 7.82415 30.4485 7.42431C30.1522 7.02447 29.7081 6.8247 29.1161 6.82501C28.8361 6.82516 28.5642 6.8813 28.3002 6.99344C28.0443 7.09758 27.8364 7.25769 27.6765 7.47377C27.5166 7.68985 27.4367 7.9619 27.4369 8.2899ZM38.6318 10.3C38.576 10.628 38.4401 10.9361 38.2243 11.2242C38.0084 11.5043 37.7166 11.7285 37.3487 11.8967C36.9807 12.0649 36.5328 12.1491 36.0048 12.1494C35.3648 12.1497 34.8327 12.018 34.4086 11.7542C33.9844 11.4904 33.6642 11.1266 33.448 10.6627C33.2398 10.1988 33.1355 9.6629 33.1352 9.0549C33.1348 8.4309 33.2425 7.87884 33.4583 7.39873C33.674 6.91861 33.9938 6.54244 34.4177 6.27022C34.8415 5.998 35.3615 5.86172 35.9775 5.8614C36.5695 5.86109 37.0655 5.98483 37.4657 6.23262C37.8658 6.4724 38.166 6.80425 38.3662 7.22814C38.5744 7.64403 38.6787 8.11998 38.6789 8.65598C38.679 8.74398 38.675 8.85198 38.6671 8.97998C38.6592 9.10799 38.6432 9.216 38.6193 9.30401L34.2393 9.30631C34.2716 9.9063 34.4358 10.3742 34.732 10.7101C35.0282 11.0459 35.4643 11.2137 36.0403 11.2134C36.4163 11.2132 36.7443 11.137 37.0242 10.9848C37.3041 10.8247 37.488 10.5966 37.5758 10.3006L38.6318 10.3ZM35.978 6.7734C35.49 6.77366 35.098 6.92186 34.8022 7.21802C34.5143 7.51417 34.3346 7.93426 34.2628 8.4783L37.2388 8.47674C37.3748 8.47666 37.4628 8.45662 37.5028 8.4166C37.5508 8.37657 37.5748 8.29256 37.5747 8.16456C37.5745 7.79656 37.4303 7.47263 37.1422 7.19279C36.862 6.91293 36.474 6.77314 35.978 6.7734ZM40.1167 12.0272L40.1135 5.97922L41.0375 5.97874L41.134 6.84268C41.2938 6.5786 41.5177 6.35848 41.8056 6.18233C42.0935 6.00618 42.4375 5.918 42.8375 5.91779C43.0695 5.91767 43.2535 5.93757 43.3895 5.9775L43.39 6.9015L43.006 6.9017C41.798 6.90233 41.1943 7.46265 41.1949 8.58265L41.1967 12.0267L40.1167 12.0272ZM49.7634 12.1421C49.1234 12.1425 48.5874 12.0108 48.1552 11.747C47.7231 11.4752 47.3989 11.1034 47.1826 10.6315C46.9664 10.1596 46.8581 9.61567 46.8578 8.99967C46.8575 8.38367 46.9652 7.83961 47.1809 7.3675C47.3967 6.89539 47.7205 6.52722 48.1523 6.26299C48.5842 5.99076 49.1201 5.85448 49.7601 5.85414C50.4001 5.85381 50.9362 5.98952 51.3683 6.2613C51.8005 6.52507 52.1247 6.8929 52.3409 7.36478C52.5572 7.83667 52.6655 8.38061 52.6658 8.99661C52.6661 9.60461 52.5584 10.1487 52.3426 10.6288C52.1269 11.1009 51.8031 11.4731 51.3712 11.7453C50.9394 12.0095 50.4034 12.1418 49.7634 12.1421ZM49.7629 11.1821C50.3549 11.1818 50.8028 10.9856 51.1066 10.5934C51.4104 10.2013 51.5621 9.66519 51.5618 8.98519C51.5614 8.30519 51.4091 7.77327 51.1049 7.38943C50.8007 7.00559 50.3526 6.81383 49.7606 6.81414C49.1766 6.81445 48.7287 7.01069 48.4169 7.40285C48.1131 7.78701 47.9614 8.32309 47.9618 9.01109C47.9621 9.69109 48.1144 10.223 48.4186 10.6068C48.7308 10.9907 49.1789 11.1824 49.7629 11.1821ZM54.4449 12.0197L54.4422 6.90768L53.3382 6.90826L53.3377 5.97226L54.4417 5.97168L54.4414 5.46768C54.4411 4.80368 54.5968 4.2796 54.9086 3.89543C55.2204 3.51127 55.7403 3.31899 56.4683 3.31861C56.8283 3.31842 57.1403 3.33826 57.4043 3.37812L57.4048 4.25412L56.8048 4.25443C56.2848 4.25471 55.9408 4.35889 55.773 4.56698C55.6051 4.76707 55.5212 5.07911 55.5214 5.50311L55.5217 5.97111L57.1657 5.97024L57.1662 6.90624L55.5222 6.90711L55.5249 12.0191L54.4449 12.0197ZM64.8806 9.93818L65.9246 9.93763C65.8768 10.3297 65.745 10.6937 65.5292 11.0298C65.3213 11.358 65.0295 11.6261 64.6536 11.8343C64.2777 12.0345 63.8217 12.1347 63.2857 12.135C62.6537 12.1354 62.1257 12.0076 61.7015 11.7519C61.2774 11.4881 60.9572 11.1242 60.741 10.6604C60.5327 10.1965 60.4284 9.66053 60.4281 9.05253C60.4278 8.42053 60.5355 7.86447 60.7512 7.38436C60.967 6.90424 61.2868 6.52807 61.7107 6.25585C62.1425 5.98362 62.6744 5.84734 63.3064 5.84701C63.8344 5.84673 64.2785 5.9465 64.6386 6.14631C65.0067 6.34612 65.2908 6.61397 65.491 6.94986C65.6912 7.27776 65.8154 7.64169 65.8636 8.04166L64.8196 8.04221C64.7394 7.61826 64.5672 7.30635 64.3031 7.10649C64.039 6.90663 63.7069 6.8068 63.3069 6.80701C62.7229 6.80732 62.279 7.00755 61.9753 7.40771C61.6795 7.79987 61.5318 8.34795 61.5321 9.05195C61.5325 9.70795 61.6807 10.2279 61.9769 10.6117C62.2731 10.9876 62.7132 11.1753 63.2972 11.175C63.7132 11.1748 64.0572 11.0746 64.3291 10.8745C64.609 10.6663 64.7928 10.3542 64.8806 9.93818ZM71.157 12.0109L71.0726 11.2669C70.9128 11.507 70.6689 11.7111 70.341 11.8793C70.021 12.0475 69.6091 12.1317 69.1051 12.132C68.4251 12.1323 67.901 11.9806 67.5329 11.6768C67.1727 11.365 66.9925 10.9331 66.9922 10.3811C66.992 9.96507 67.0798 9.63302 67.2556 9.38493C67.4315 9.13684 67.6674 8.95272 67.9634 8.83256C68.2593 8.7044 68.5872 8.61623 68.9472 8.56804L70.3751 8.37529C70.6311 8.33515 70.7951 8.28307 70.867 8.21903C70.947 8.14699 70.9869 8.03097 70.9868 7.87097C70.9868 7.71097 70.9467 7.54299 70.8666 7.36703C70.7865 7.19107 70.6464 7.04315 70.4463 6.92325C70.2463 6.80336 69.9703 6.7435 69.6183 6.74369C69.2263 6.74389 68.8983 6.83207 68.6344 7.00821C68.3705 7.18434 68.2186 7.45242 68.1788 7.81245L67.1708 7.81298C67.1866 7.45297 67.2905 7.12491 67.4823 6.82881C67.6821 6.53271 67.966 6.29656 68.3339 6.12036C68.7018 5.93617 69.1458 5.84394 69.6658 5.84366C70.4498 5.84325 71.0419 6.05494 71.4421 6.47873C71.8503 6.90251 72.0546 7.47841 72.055 8.20641L72.057 12.0104L71.157 12.0109ZM71 10.043L70.9995 9.10696L69.1516 9.37193C68.7997 9.42012 68.5277 9.51226 68.3358 9.64836C68.1439 9.78446 68.048 10.0045 68.0481 10.3085C68.0483 10.6285 68.1604 10.8645 68.3845 11.0163C68.6086 11.1682 68.9046 11.2441 69.2726 11.2439C69.5686 11.2437 69.8486 11.1996 70.1126 11.1114C70.3765 11.0233 70.5884 10.8912 70.7483 10.7151C70.9163 10.539 71.0001 10.315 71 10.043ZM73.2446 10.3298L74.3006 10.3292C74.3567 10.5692 74.4608 10.7571 74.6129 10.8931C74.765 11.021 74.941 11.1129 75.1411 11.1688C75.3491 11.2167 75.5491 11.2406 75.7411 11.2405C76.1091 11.2403 76.4291 11.1641 76.701 11.012C76.9729 10.8598 77.1088 10.6117 77.1086 10.2677C77.1084 9.99574 77.0123 9.7998 76.8203 9.6799C76.6282 9.552 76.3442 9.47215 75.9681 9.44035L75.4161 9.38064C74.7841 9.30897 74.288 9.14923 73.9279 8.90142C73.5677 8.64561 73.3875 8.2377 73.3872 7.6777C73.3869 7.1577 73.5907 6.7216 73.9985 6.36938C74.4063 6.01717 74.9822 5.84086 75.7262 5.84047C76.4462 5.84009 77.0023 6.0078 77.3945 6.34359C77.7947 6.67938 78.0229 7.10326 78.0792 7.61523L77.0472 7.61578C76.967 7.26382 76.7989 7.02791 76.5428 6.90804C76.2867 6.78818 76.0187 6.72832 75.7387 6.72847C75.3467 6.72867 75.0348 6.81284 74.8028 6.98096C74.5789 7.14908 74.467 7.36113 74.4672 7.61713C74.4673 7.84113 74.5394 8.0171 74.6835 8.14502C74.8275 8.26495 75.1196 8.34879 75.5596 8.39656L76.1116 8.45627C76.4956 8.49607 76.8477 8.57588 77.1678 8.69571C77.4878 8.80754 77.7439 8.98341 77.936 9.22331C78.1282 9.46321 78.2243 9.79916 78.2246 10.2312C78.2249 10.7912 78.0011 11.2473 77.5533 11.5995C77.1135 11.9517 76.5096 12.1281 75.7416 12.1285C75.0136 12.1288 74.4295 11.9692 73.9893 11.6494C73.5571 11.3296 73.3089 10.8897 73.2446 10.3298ZM84.7099 10.2757C84.6541 10.6038 84.5183 10.9118 84.3024 11.2C84.0866 11.4801 83.7947 11.7042 83.4268 11.8724C83.0589 12.0406 82.6109 12.1248 82.0829 12.1251C81.4429 12.1255 80.9108 11.9937 80.4867 11.73C80.0626 11.4662 79.7424 11.1024 79.5261 10.6385C79.3179 10.1746 79.2136 9.63864 79.2133 9.03064C79.2129 8.40664 79.3207 7.85458 79.5364 7.37447C79.7521 6.89435 80.072 6.51818 80.4958 6.24596C80.9197 5.97374 81.4396 5.83746 82.0556 5.83714C82.6476 5.83683 83.1437 5.96057 83.5438 6.20836C83.9439 6.44815 84.2441 6.77999 84.4443 7.20388C84.6525 7.61977 84.7568 8.09572 84.7571 8.63172C84.7571 8.71972 84.7532 8.82772 84.7452 8.95572C84.7373 9.08373 84.7214 9.19174 84.6974 9.27975L80.3174 9.28206C80.3497 9.88204 80.514 10.35 80.8101 10.6858C81.1063 11.0216 81.5424 11.1894 82.1184 11.1891C82.4944 11.1889 82.8224 11.1127 83.1023 10.9606C83.3822 10.8004 83.5661 10.5723 83.6539 10.2763L84.7099 10.2757ZM82.0561 6.74914C81.5681 6.7494 81.1762 6.8976 80.8803 7.19376C80.5925 7.48991 80.4127 7.91 80.341 8.45404L83.317 8.45248C83.453 8.4524 83.541 8.43236 83.5809 8.39234C83.6289 8.35231 83.6529 8.2683 83.6528 8.1403C83.6526 7.7723 83.5084 7.44837 83.2203 7.16853C82.9401 6.88867 82.5521 6.74888 82.0561 6.74914ZM85.6899 10.3232L86.7459 10.3227C86.802 10.5626 86.9061 10.7506 87.0582 10.8865C87.2103 11.0144 87.3863 11.1063 87.5864 11.1622C87.7944 11.2101 87.9944 11.234 88.1864 11.2339C88.5544 11.2337 88.8744 11.1576 89.1463 11.0054C89.4182 10.8533 89.5541 10.6052 89.5539 10.2612C89.5537 9.98919 89.4576 9.79324 89.2656 9.67334C89.0735 9.54545 88.7895 9.46559 88.4135 9.43379L87.8614 9.37408C87.2294 9.30242 86.7333 9.14268 86.3732 8.89487C86.013 8.63906 85.8328 8.23115 85.8325 7.67115C85.8323 7.15115 86.036 6.71504 86.4438 6.36283C86.8517 6.01061 87.4276 5.83431 88.1716 5.83392C88.8916 5.83354 89.4476 6.00125 89.8398 6.33704C90.24 6.67283 90.4682 7.09671 90.5245 7.60868L89.4925 7.60922C89.4123 7.25727 89.2442 7.02135 88.9881 6.90149C88.7321 6.78162 88.464 6.72177 88.184 6.72191C87.792 6.72212 87.4801 6.80628 87.2482 6.97441C87.0242 7.14252 86.9124 7.35458 86.9125 7.61058C86.9126 7.83458 86.9847 8.01054 87.1288 8.13847C87.2728 8.25839 87.5649 8.34224 88.0049 8.39001L88.5569 8.44972C88.941 8.48952 89.293 8.56933 89.6131 8.68916C89.9331 8.80099 90.1892 8.97686 90.3813 9.21676C90.5735 9.45666 90.6696 9.79261 90.6699 10.2246C90.6702 10.7846 90.4464 11.2407 89.9986 11.593C89.5588 11.9452 88.9549 12.1215 88.1869 12.1219C87.4589 12.1223 86.8748 11.9626 86.4346 11.6428C86.0024 11.3231 85.7542 10.8832 85.6899 10.3232Z" fill="#1B1B1B"/>
</svg>
