<svg width="270" height="31" viewBox="0 0 270 31" fill="none" xmlns="http://www.w3.org/2000/svg">
<path d="M101.324 22.0808L101.316 11.1078L97.4657 11.1093L97.4647 9.60886L106.883 9.60519L106.884 11.1056L103.034 11.1071L103.041 22.0801L101.324 22.0808ZM107.972 18.8966L107.968 12.9672L109.595 12.9665L109.599 18.6609C109.6 20.0951 110.257 20.8119 111.571 20.8114C111.993 20.8112 112.384 20.7267 112.746 20.5578C113.107 20.389 113.402 20.1478 113.631 19.8344C113.86 19.5089 113.974 19.1112 113.974 18.6411L113.969 12.9648L115.596 12.9642L115.603 22.0752L114.211 22.0758L114.084 20.8827C113.807 21.2926 113.415 21.6241 112.909 21.8774C112.415 22.1307 111.825 22.2575 111.138 22.2577C110.15 22.2581 109.372 21.9752 108.805 21.409C108.251 20.8307 107.973 19.9933 107.972 18.8966ZM118.251 22.0742L118.244 12.9632L119.636 12.9626L119.782 14.2641C120.023 13.8663 120.36 13.5348 120.794 13.2695C121.227 13.0042 121.745 12.8714 122.348 12.8712C122.697 12.871 122.975 12.9011 123.18 12.9612L123.18 14.3532L122.602 14.3534C120.782 14.3541 119.873 15.1981 119.874 16.8853L119.878 22.0735L118.251 22.0742ZM124.942 22.0716L124.935 12.9606L126.327 12.96L126.454 14.1712C126.743 13.7492 127.135 13.4116 127.629 13.1584C128.135 12.9051 128.737 12.7783 129.436 12.778C130.437 12.7776 131.22 13.0666 131.787 13.6448C132.354 14.211 132.638 15.0365 132.638 16.1211L132.643 22.0686L131.016 22.0692L131.012 16.3567C131.011 14.9347 130.341 14.2239 129.003 14.2244C128.594 14.2246 128.202 14.3091 127.829 14.4779C127.455 14.6348 127.148 14.8759 126.907 15.2014C126.678 15.5269 126.564 15.9246 126.565 16.3946L126.569 22.0709L124.942 22.0716ZM145.788 22.0635L145.642 20.8162C145.341 21.2863 144.926 21.642 144.396 21.8832C143.878 22.1245 143.287 22.2452 142.624 22.2455C141.781 22.2458 141.063 22.0412 140.473 21.6317C139.882 21.2221 139.429 20.6619 139.116 19.951C138.814 19.2401 138.663 18.4447 138.662 17.565C138.661 16.649 138.817 15.8295 139.13 15.1062C139.443 14.383 139.901 13.8164 140.503 13.4064C141.117 12.9844 141.87 12.7732 142.762 12.7728C143.329 12.7726 143.853 12.8749 144.335 13.0795C144.817 13.2842 145.221 13.5854 145.547 13.9829L145.543 9.1382L147.17 9.13757L147.18 22.0629L145.788 22.0635ZM145.55 18.5927L145.549 16.3872C145.548 15.9052 145.428 15.5075 145.186 15.1943C144.957 14.869 144.65 14.6281 144.264 14.4715C143.878 14.303 143.468 14.2188 143.034 14.2189C142.155 14.2193 141.48 14.5208 141.01 15.1236C140.553 15.7263 140.324 16.5279 140.325 17.5282C140.326 18.5043 140.549 19.2936 140.996 19.896C141.454 20.4984 142.129 20.7995 143.021 20.7991C143.455 20.7989 143.865 20.7205 144.25 20.5636C144.636 20.3948 144.949 20.1476 145.19 19.8221C145.43 19.4966 145.551 19.0868 145.55 18.5927ZM155.673 22.0596L155.545 20.9389C155.305 21.3005 154.937 21.608 154.443 21.8612C153.962 22.1145 153.341 22.2413 152.582 22.2416C151.557 22.242 150.768 22.0133 150.213 21.5556C149.67 21.0858 149.399 20.4351 149.398 19.6035C149.398 18.9768 149.53 18.4766 149.795 18.1029C150.06 17.7292 150.415 17.4519 150.861 17.271C151.307 17.078 151.801 16.9452 152.343 16.8727L154.494 16.5826C154.879 16.5222 155.126 16.4438 155.235 16.3473C155.355 16.2388 155.415 16.064 155.415 15.823C155.415 15.582 155.355 15.3289 155.234 15.0638C155.113 14.7987 154.902 14.5759 154.601 14.3952C154.299 14.2145 153.884 14.1243 153.353 14.1245C152.763 14.1248 152.269 14.2575 151.871 14.5228C151.474 14.7881 151.245 15.1919 151.185 15.7343L149.667 15.7349C149.69 15.1925 149.847 14.6983 150.136 14.2523C150.437 13.8063 150.864 13.4506 151.418 13.1853C151.972 12.9079 152.641 12.769 153.425 12.7687C154.606 12.7682 155.498 13.0873 156.101 13.7258C156.716 14.3642 157.024 15.2318 157.025 16.3285L157.029 22.0591L155.673 22.0596ZM155.436 19.095L155.435 17.685L152.651 18.0838C152.121 18.1563 151.711 18.295 151.422 18.5C151.133 18.705 150.989 19.0365 150.989 19.4944C150.989 19.9765 151.158 20.332 151.496 20.5608C151.833 20.7897 152.279 20.904 152.834 20.9038C153.28 20.9036 153.701 20.8371 154.099 20.7044C154.497 20.5717 154.816 20.3727 155.057 20.1075C155.31 19.8423 155.436 19.5048 155.436 19.095ZM160.047 19.6536L160.043 14.3569L158.362 14.3576L158.361 13.0018L159.409 13.0014C159.674 13.0013 159.855 12.965 159.951 12.8927C160.048 12.8083 160.108 12.6275 160.132 12.3503L160.347 10.2352L161.667 10.2346L161.669 12.9463L164.019 12.9453L164.02 14.3554L161.67 14.3563L161.673 19.3999C161.674 19.894 161.776 20.2555 161.981 20.4844C162.186 20.7133 162.602 20.8276 163.229 20.8274L164.205 20.827L164.206 22.1647C163.977 22.1769 163.724 22.189 163.447 22.2012C163.17 22.2254 162.893 22.2376 162.615 22.2377C161.687 22.238 161.024 22.0093 160.626 21.5515C160.24 21.0937 160.047 20.4611 160.047 19.6536ZM172.073 22.0532L171.946 20.9325C171.705 21.2941 171.338 21.6016 170.844 21.8548C170.362 22.1081 169.741 22.2349 168.982 22.2352C167.958 22.2356 167.168 22.0069 166.613 21.5492C166.071 21.0794 165.799 20.4287 165.798 19.5971C165.798 18.9705 165.93 18.4703 166.195 18.0966C166.46 17.7229 166.815 17.4455 167.261 17.2646C167.707 17.0716 168.201 16.9388 168.743 16.8663L170.894 16.5762C171.28 16.5158 171.527 16.4374 171.635 16.3409C171.756 16.2324 171.816 16.0576 171.816 15.8166C171.815 15.5756 171.755 15.3225 171.634 15.0574C171.514 14.7923 171.302 14.5695 171.001 14.3888C170.7 14.2082 170.284 14.1179 169.754 14.1181C169.163 14.1184 168.669 14.2511 168.271 14.5164C167.874 14.7817 167.645 15.1855 167.585 15.7279L166.067 15.7285C166.091 15.1861 166.247 14.692 166.536 14.2459C166.837 13.7999 167.264 13.4442 167.819 13.1789C168.373 12.9015 169.042 12.7626 169.825 12.7623C171.006 12.7618 171.898 13.0809 172.501 13.7194C173.116 14.3579 173.424 15.2255 173.425 16.3222L173.429 22.0527L172.073 22.0532ZM171.836 19.0886L171.835 17.6786L169.051 18.0774C168.521 18.1499 168.111 18.2886 167.822 18.4936C167.533 18.6986 167.389 19.0301 167.389 19.4881C167.39 19.9701 167.559 20.3256 167.896 20.5544C168.234 20.7833 168.68 20.8976 169.234 20.8974C169.68 20.8972 170.102 20.8307 170.499 20.698C170.897 20.5653 171.216 20.3663 171.457 20.1011C171.71 19.8359 171.836 19.4984 171.836 19.0886ZM179.835 11.3664L179.834 9.57678L181.606 9.57609L181.607 11.3658L179.835 11.3664ZM179.915 22.0502L179.909 12.9392L181.536 12.9385L181.542 22.0495L179.915 22.0502ZM184.188 22.0485L184.181 12.9375L185.573 12.9369L185.7 14.1481C185.989 13.7262 186.381 13.3886 186.875 13.1353C187.381 12.882 187.983 12.7552 188.682 12.755C189.682 12.7546 190.466 13.0435 191.033 13.6218C191.6 14.188 191.883 15.0134 191.884 16.098L191.888 22.0455L190.262 22.0461L190.257 16.3337C190.256 14.9116 189.587 14.2008 188.249 14.2013C187.84 14.2015 187.448 14.286 187.074 14.4549C186.701 14.6117 186.394 14.8528 186.153 15.1783C185.924 15.5038 185.81 15.9015 185.81 16.3716L185.814 22.0479L184.188 22.0485ZM194.913 19.64L194.909 14.3433L193.228 14.344L193.227 12.9882L194.275 12.9878C194.54 12.9877 194.721 12.9515 194.817 12.8791C194.914 12.7947 194.974 12.6139 194.998 12.3367L195.213 10.2216L196.533 10.2211L196.535 12.9327L198.885 12.9318L198.886 14.3418L196.536 14.3427L196.539 19.3863C196.54 19.8804 196.642 20.2419 196.847 20.4708C197.053 20.6997 197.468 20.8141 198.095 20.8138L199.071 20.8134L199.072 22.1512C198.843 22.1633 198.59 22.1755 198.313 22.1876C198.036 22.2118 197.759 22.224 197.481 22.2241C196.553 22.2245 195.89 21.9957 195.492 21.5379C195.106 21.0801 194.913 20.4475 194.913 19.64ZM204.722 22.2213C203.758 22.2217 202.95 22.0231 202.299 21.6257C201.648 21.2162 201.16 20.656 200.834 19.945C200.508 19.2341 200.345 18.4147 200.344 17.4867C200.343 16.5587 200.506 15.7392 200.83 15.028C201.155 14.3168 201.643 13.7622 202.293 13.3643C202.944 12.9543 203.751 12.7491 204.715 12.7487C205.68 12.7483 206.487 12.9529 207.138 13.3624C207.789 13.7599 208.278 14.314 208.604 15.025C208.93 15.7359 209.093 16.5553 209.094 17.4833C209.094 18.3992 208.932 19.2188 208.607 19.942C208.282 20.6532 207.795 21.2138 207.144 21.6238C206.494 22.0217 205.686 22.2209 204.722 22.2213ZM204.721 20.7751C205.613 20.7747 206.288 20.4792 206.745 19.8885C207.203 19.2978 207.431 18.4902 207.43 17.4659C207.43 16.4415 207.2 15.6401 206.742 15.0618C206.283 14.4835 205.608 14.1946 204.716 14.1949C203.837 14.1952 203.162 14.4908 202.692 15.0815C202.235 15.6601 202.006 16.4677 202.007 17.5041C202.008 18.5285 202.237 19.3299 202.696 19.9082C203.166 20.4865 203.841 20.7754 204.721 20.7751ZM221.858 22.0338L221.712 20.7865C221.411 21.2567 220.996 21.6124 220.465 21.8536C219.947 22.0948 219.357 22.2156 218.694 22.2158C217.851 22.2162 217.133 22.0116 216.543 21.602C215.952 21.1925 215.499 20.6323 215.186 19.9214C214.884 19.2104 214.733 18.4151 214.732 17.5353C214.731 16.6194 214.887 15.7998 215.2 15.0766C215.513 14.3534 215.971 13.7868 216.573 13.3768C217.187 12.9548 217.94 12.7436 218.832 12.7432C219.398 12.743 219.923 12.8452 220.405 13.0499C220.887 13.2546 221.291 13.5557 221.617 13.9533L221.613 9.10857L223.24 9.10794L223.25 22.0333L221.858 22.0338ZM221.62 18.5631L221.619 16.3576C221.618 15.8755 221.497 15.4779 221.256 15.1646C221.027 14.8393 220.719 14.5984 220.334 14.4419C219.948 14.2733 219.538 14.1891 219.104 14.1893C218.224 14.1896 217.55 14.4912 217.08 15.094C216.623 15.6967 216.394 16.4982 216.395 17.4985C216.396 18.4747 216.619 19.264 217.066 19.8664C217.524 20.4688 218.199 20.7698 219.091 20.7695C219.525 20.7693 219.934 20.6908 220.32 20.534C220.705 20.3651 221.019 20.1179 221.259 19.7925C221.5 19.467 221.62 19.0572 221.62 18.5631ZM229.79 22.2115C228.826 22.2119 228.019 22.0134 227.368 21.6159C226.717 21.2064 226.228 20.6462 225.902 19.9353C225.576 19.2244 225.413 18.4049 225.412 17.4769C225.412 16.549 225.574 15.7294 225.899 15.0182C226.224 14.307 226.711 13.7525 227.362 13.3545C228.012 12.9445 228.82 12.7393 229.784 12.739C230.748 12.7386 231.555 12.9431 232.207 13.3526C232.858 13.7501 233.346 14.3043 233.672 15.0152C233.998 15.7261 234.161 16.5456 234.162 17.4735C234.162 18.3894 234 19.209 233.675 19.9322C233.351 20.6434 232.863 21.204 232.212 21.614C231.562 22.012 230.755 22.2111 229.79 22.2115ZM229.789 20.7653C230.681 20.765 231.356 20.4694 231.813 19.8787C232.271 19.288 232.499 18.4805 232.499 17.4561C232.498 16.4317 232.268 15.6304 231.81 15.0521C231.352 14.4738 230.677 14.1848 229.785 14.1851C228.905 14.1855 228.23 14.481 227.761 15.0717C227.303 15.6504 227.075 16.4579 227.075 17.4944C227.076 18.5188 227.306 19.3201 227.764 19.8984C228.235 20.4767 228.91 20.7657 229.789 20.7653ZM236.257 11.3445L236.255 9.5548L238.027 9.55411L238.028 11.3438L236.257 11.3445ZM236.337 22.0282L236.33 12.9172L237.957 12.9165L237.964 22.0276L236.337 22.0282ZM240.609 22.0265L240.602 12.9155L241.994 12.915L242.122 14.1261C242.411 13.7042 242.802 13.3666 243.296 13.1133C243.802 12.86 244.404 12.7333 245.103 12.733C246.104 12.7326 246.887 13.0215 247.454 13.5998C248.021 14.166 248.305 14.9914 248.306 16.0761L248.31 22.0235L246.683 22.0242L246.679 16.3117C246.678 14.8896 246.008 14.1788 244.671 14.1793C244.261 14.1795 243.869 14.264 243.496 14.4329C243.122 14.5897 242.815 14.8309 242.574 15.1563C242.346 15.4818 242.231 15.8796 242.232 16.3496L242.236 22.0259L240.609 22.0265ZM258.585 22.598C258.586 23.526 258.219 24.2613 257.484 24.8039C256.749 25.3585 255.629 25.6362 254.122 25.6367C253.122 25.6371 252.314 25.523 251.7 25.2942C251.085 25.0655 250.639 24.7523 250.361 24.3547C250.084 23.9692 249.945 23.5293 249.944 23.0352C249.944 22.4809 250.1 22.059 250.414 21.7696C250.739 21.4682 251.07 21.2632 251.407 21.1546C251.142 21.0462 250.913 20.8716 250.72 20.6306C250.539 20.3776 250.448 20.0583 250.448 19.6726C250.448 19.3231 250.55 18.9977 250.755 18.6963C250.959 18.395 251.267 18.1598 251.676 17.991C251.278 17.726 250.983 17.3947 250.79 16.997C250.597 16.5994 250.5 16.1656 250.5 15.6956C250.499 14.8279 250.806 14.1167 251.42 13.5621C252.046 13.0075 252.98 12.7299 254.221 12.7294C254.655 12.7293 255.047 12.7713 255.397 12.8555C255.746 12.9277 256.059 13.03 256.337 13.1625L258.85 13.1615L258.85 14.4088L257.531 14.3551C257.844 14.7527 258.001 15.2287 258.002 15.783C258.002 16.2892 257.864 16.7593 257.587 17.1932C257.322 17.6272 256.913 17.9769 256.358 18.2422C255.804 18.4955 255.087 18.6223 254.208 18.6227C253.641 18.6229 253.135 18.5628 252.689 18.4425C252.4 18.539 252.189 18.6656 252.056 18.8224C251.936 18.967 251.876 19.1117 251.876 19.2563C251.876 19.4853 251.961 19.666 252.129 19.7985C252.31 19.931 252.582 19.9972 252.943 19.9971L255.492 19.9961C256.492 19.9957 257.258 20.2364 257.788 20.7183C258.319 21.1881 258.585 21.8146 258.585 22.598ZM252.072 15.695C252.073 16.2011 252.254 16.6048 252.615 16.9059C252.989 17.2071 253.532 17.3575 254.243 17.3572C254.99 17.357 255.538 17.2061 255.887 16.9047C256.249 16.6032 256.429 16.1934 256.429 15.6752C256.429 15.169 256.248 14.7654 255.886 14.4642C255.524 14.151 254.982 13.9946 254.258 13.9948C253.523 13.9951 252.975 14.152 252.614 14.4655C252.252 14.7669 252.072 15.1767 252.072 15.695ZM255.294 21.4423L252.836 21.4433C252.667 21.4434 252.48 21.4916 252.275 21.5881C252.083 21.6846 251.914 21.8293 251.769 22.0222C251.625 22.203 251.553 22.4441 251.553 22.7454C251.553 23.1672 251.746 23.5226 252.132 23.8117C252.53 24.1008 253.211 24.2451 254.175 24.2448C255.176 24.2444 255.893 24.1055 256.326 23.8281C256.76 23.5508 256.977 23.1651 256.976 22.6709C256.976 22.2732 256.825 21.972 256.524 21.7672C256.234 21.5504 255.824 21.4421 255.294 21.4423Z" fill="#1B1B1B"/>
<g clip-path="url(#clip0)">
<path d="M8.80792 19.1251C8.81278 19.6113 8.694 20.0917 8.46111 20.5279C8.23002 20.954 7.89796 21.3268 7.48949 21.6187C7.04467 21.9309 6.5433 22.1679 6.00866 22.3188C5.3999 22.4919 4.76579 22.5775 4.12871 22.5724C3.38128 22.5841 2.63699 22.4804 1.92673 22.2655C1.227 22.0298 0.575567 21.6868 0 21.2508L1.07071 19.6477C1.49955 19.9878 1.97189 20.2782 2.47723 20.5127C2.87234 20.6911 3.30614 20.7847 3.74612 20.7866C4.20305 20.8067 4.65284 20.6764 5.01501 20.4188C5.17384 20.2945 5.29997 20.1386 5.38388 19.9629C5.4678 19.7871 5.50731 19.5961 5.49945 19.4042C5.49992 19.232 5.47113 19.0608 5.41412 18.8968C5.34333 18.7096 5.23293 18.5372 5.08933 18.3895C4.89339 18.1873 4.67678 18.003 4.4425 17.8391C4.16725 17.6387 3.81768 17.3951 3.3883 17.1034C3.05525 16.8675 2.73321 16.6544 2.41943 16.4261C2.1114 16.2034 1.82414 15.9574 1.56065 15.6905C1.30481 15.4316 1.09488 15.1371 0.938594 14.8179C0.775497 14.4707 0.694791 14.0953 0.701881 13.717C0.695372 13.2663 0.806779 12.8208 1.02667 12.4182C1.23779 12.0307 1.53843 11.6904 1.90747 11.4213C2.30731 11.1328 2.76184 10.9152 3.24792 10.7796C3.79879 10.6232 4.37257 10.5462 4.94895 10.5513C5.58318 10.5462 6.21504 10.6231 6.82614 10.7796C7.41974 10.9342 7.98546 11.1684 8.50515 11.4746L7.53353 12.9154C6.92767 12.5044 6.19666 12.2799 5.4444 12.2736C5.04835 12.2597 4.6593 12.3727 4.34341 12.5933C4.20669 12.6859 4.09575 12.807 4.01967 12.9468C3.9436 13.0866 3.90456 13.241 3.90576 13.3974C3.90709 13.5519 3.94185 13.7046 4.00802 13.8466C4.07419 13.9886 4.17043 14.117 4.29111 14.2243C4.70737 14.5966 5.15062 14.9424 5.6178 15.2593C6.25087 15.6888 6.77568 16.0642 7.19222 16.3856C7.55364 16.6553 7.88385 16.9588 8.17761 17.2911C8.40373 17.5459 8.57388 17.8389 8.67856 18.1536C8.77318 18.4674 8.81951 18.7919 8.81618 19.1175" fill="#23242B"/>
<path d="M18.9959 16.3777C18.9959 15.1103 18.7242 14.1099 18.1809 13.3764C17.9406 13.0293 17.61 12.746 17.2205 12.5534C16.831 12.3608 16.3956 12.2653 15.9558 12.2762C15.4906 12.2652 15.0301 12.367 14.6186 12.5717C14.2071 12.7765 13.8584 13.0773 13.6058 13.4455C13.0335 14.2267 12.7473 15.2809 12.7473 16.6079C12.7473 17.9043 13.0317 18.9278 13.6004 19.6783C13.86 20.0335 14.2103 20.3216 14.6191 20.5161C15.0278 20.7105 15.4818 20.8052 15.9395 20.7913C16.4676 20.81 16.9867 20.6593 17.412 20.364C17.8057 20.0693 18.1265 19.6974 18.352 19.274C18.5954 18.8219 18.7657 18.3381 18.8574 17.8386C18.9506 17.3566 18.9969 16.8676 18.9959 16.3777V16.3777ZM22.4299 16.26C22.4406 17.1157 22.2898 17.9665 21.9844 18.7725C21.7084 19.5051 21.2911 20.1834 20.7537 20.7734C20.2359 21.3369 19.597 21.7904 18.8791 22.1039C18.1489 22.4196 17.3543 22.5812 16.5508 22.5772C16.1953 22.5792 15.8404 22.5484 15.4913 22.4851C15.1599 22.4251 14.8395 22.32 14.5404 22.173C14.2268 22.0155 13.9333 21.825 13.6656 21.6049C13.3438 21.3405 13.0432 21.054 12.7663 20.7478V28.0834H9.60669V10.7282H12.7663L12.7826 12.4169C13.2823 11.7979 13.9192 11.2888 14.6491 10.9252C15.3786 10.5971 16.1799 10.435 16.9882 10.4519C17.7467 10.4435 18.4982 10.5892 19.1915 10.8792C19.8477 11.1591 20.4344 11.5652 20.914 12.0715C21.4125 12.6052 21.793 13.2271 22.0333 13.9009C22.3051 14.6607 22.4383 15.4583 22.4272 16.26" fill="#23242B"/>
<path d="M26.454 4.94873H23.248V22.5814H26.454V4.94873Z" fill="#23242B"/>
<path d="M36.9416 22.5741V21.0033C36.4304 21.5941 35.8058 22.0771 35.1044 22.4238C34.4136 22.7257 33.6649 22.8734 32.9107 22.8567C32.0951 22.8822 31.2871 22.6926 30.5687 22.3071C29.9322 21.9393 29.4445 21.3617 29.1895 20.6741C29.1108 20.5014 29.0514 20.3206 29.0126 20.1349C28.9735 19.9457 28.9371 19.7305 28.9059 19.4894C28.8727 19.2123 28.8536 18.9338 28.8486 18.6547C28.8486 18.3411 28.8486 17.9574 28.8486 17.5038V10.8367H31.9531V17.5479C31.9435 18.0038 31.9705 18.4597 32.0338 18.9114C32.0851 19.2066 32.1853 19.4913 32.3304 19.7538C32.6921 20.4122 33.3323 20.7415 34.2457 20.7415C35.4132 20.7415 36.2173 20.2567 36.6579 19.2872C36.7726 19.0203 36.8522 18.7398 36.8947 18.4525C36.9487 18.0227 36.9722 17.5896 36.965 17.1564V10.8367H40.0694V22.5741H36.9416Z" fill="#23242B"/>
<path d="M50.5999 22.5733V15.862C50.6103 15.4069 50.5824 14.9516 50.5167 14.5011C50.4698 14.2012 50.3704 13.912 50.2229 13.6466C49.8607 12.9904 49.2228 12.6614 48.3094 12.6597C47.7858 12.6452 47.2679 12.7708 46.8092 13.0233C46.3862 13.2696 46.0563 13.6485 45.8706 14.1011C45.7576 14.3754 45.6824 14.6637 45.647 14.9582C45.6014 15.3826 45.5815 15.8093 45.5872 16.2361V22.5733H42.4673V10.839H45.5872V12.3973C46.1016 11.8093 46.7283 11.3298 47.4306 10.987C48.1211 10.6855 48.8689 10.5375 49.6223 10.5533C50.4402 10.5273 51.2495 10.7258 51.9623 11.1273C52.5908 11.5023 53.0758 12.0764 53.3403 12.7583C53.4027 12.9324 53.4599 13.1064 53.5067 13.2778C53.5582 13.4822 53.5973 13.6895 53.6237 13.8985C53.6549 14.1349 53.6731 14.418 53.6835 14.7323C53.6939 15.0465 53.6835 15.4413 53.6835 15.8958V22.5733H50.5999Z" fill="#23242B"/>
<path d="M63.4937 22.8082L58.587 16.2684V22.5723H55.3086V5.17554H58.587V15.3903H58.9334L63.2974 10.5332L65.763 11.5503L61.5709 15.8647L66.5294 21.7886L63.4937 22.8082Z" fill="#23242B"/>
<path d="M72.2527 21.972V19.9249L79.706 16.3616L72.2527 12.8448V10.7512L81.8705 15.4309V17.3388L72.2527 21.972Z" fill="#23242B"/>
</g>
<defs>
<clipPath id="clip0">
<rect y="5.1416" width="81.3484" height="23.2424" fill="white"/>
</clipPath>
</defs>
</svg>
